<?xml version="1.0" encoding="UTF-8" standalone="no"?>
<!-- Created with Inkscape (http://www.inkscape.org/) -->

<svg
   width="657.71057mm"
   height="173.44405mm"
   viewBox="0 0 657.71057 173.44405"
   version="1.1"
   id="svg1"
   xmlns:inkscape="http://www.inkscape.org/namespaces/inkscape"
   xmlns:sodipodi="http://sodipodi.sourceforge.net/DTD/sodipodi-0.dtd"
   xmlns="http://www.w3.org/2000/svg"
   xmlns:svg="http://www.w3.org/2000/svg">
  <sodipodi:namedview
     id="namedview1"
     pagecolor="#ffffff"
     bordercolor="#000000"
     borderopacity="0.25"
     inkscape:showpageshadow="2"
     inkscape:pageopacity="0.0"
     inkscape:pagecheckerboard="0"
     inkscape:deskcolor="#d1d1d1"
     inkscape:document-units="mm" />
  <defs
     id="defs1" />
  <g
     inkscape:label="Warstwa 1"
     inkscape:groupmode="layer"
     id="layer1"
     transform="translate(223.8375,-61.647916)">
    <g
       id="g2124"
       style="display:inline;fill:#000000;fill-opacity:1;stroke:#000000;stroke-width:1;stroke-linecap:round;stroke-linejoin:round;stroke-dasharray:none;stroke-opacity:1;paint-order:stroke fill markers"
       inkscape:label="MOONSHINE canonic"
       transform="translate(-594.15397,50.024182)">
      <path
         id="path2117"
         style="display:inline;fill:#000000;fill-opacity:1;stroke:#000000;stroke-width:1;stroke-linecap:round;stroke-linejoin:round;stroke-dasharray:none;stroke-opacity:1;paint-order:stroke fill markers"
         inkscape:label="E"
         d="m 738.33775,57.933933 c -0.562,0.01558 -1.1612,0.132603 -1.79627,0.364319 -17.33741,6.325813 -29.03682,2.907656 -42.89299,0.789099 -13.85618,-2.118541 -3.07908,16.814569 0.30799,77.193219 3.38707,60.37862 -7.3918,91.12054 -7.3918,91.12054 0,0 0.449,-0.19302 1.26814,-0.51005 5.734,-2.21919 29.59196,-10.50022 44.3451,-0.9679 11.17412,7.21984 16.79128,-26.10877 4.93303,-25.98549 -11.85824,0.12329 -22.99196,7.00185 -30.22916,-7.57112 0,0 -4.55788,-41.794 6.78098,-46.94855 7.85616,-3.57136 21.69002,11.19763 22.24051,-7.10189 0.80415,-26.73208 -20.98835,-1.7446 -27.54819,-6.08439 -4.00288,-2.64816 -5.4695,-30.23931 -3.62201,-40.302446 3.58156,-19.508372 24.41353,-12.456753 30.88494,-12.17135 11.25816,0.496525 11.14982,-22.05764 2.71973,-21.823991 z"
         transform="translate(283.63346,-42.333335)" />
      <path
         id="path2118"
         style="display:inline;fill:#000000;fill-opacity:1;stroke:#000000;stroke-width:1;stroke-linecap:round;stroke-linejoin:round;stroke-dasharray:none;stroke-opacity:1;paint-order:stroke fill markers"
         inkscape:label="N2"
         d="m 666.36281,57.457477 c -24.23664,0.43226 -12.22944,12.970598 -12.41475,52.539943 -0.11732,25.05042 -1.09606,31.25081 -1.09606,31.25081 -47.41992,-45.576533 -5.57004,-82.93227 -39.03172,-83.1572 -22.36518,-0.150339 -2.01048,20.884202 -3.1657,76.8289 -1.38495,67.06994 -28.00518,91.12098 5.13147,91.1624 27.1455,0.0339 4.81622,-34.48818 9.39477,-75.69099 3.88041,-34.92012 28.77193,1.61489 28.25203,28.73468 -0.48581,25.34148 -12.77066,47.74468 10.95592,47.54283 28.00819,-0.23828 1.26513,-22.68768 3.50211,-93.78807 1.71576,-54.534082 19.2953,-75.794672 -1.52807,-75.423303 z"
         transform="translate(282.04597,-42.333336)" />
      <path
         id="path2119"
         style="display:inline;fill:#000000;fill-opacity:1;stroke:#000000;stroke-width:1;stroke-linecap:round;stroke-linejoin:round;stroke-dasharray:none;stroke-opacity:1;paint-order:stroke fill markers"
         inkscape:label="I"
         d="m 586.7677,56.373306 c -24.73317,-0.440397 -5.04548,35.749554 -4.53823,78.667554 0.50726,42.918 -24.53705,92.34179 4.96301,91.56805 29.50006,-0.77373 5.33089,-32.31179 5.85494,-91.52413 0.48485,-54.783371 18.83004,-78.264372 -6.27972,-78.711474 z"
         transform="translate(268.81677,-42.333336)" />
      <path
         id="path2120"
         style="display:inline;fill:#000000;fill-opacity:1;stroke:#000000;stroke-width:1;stroke-linecap:round;stroke-linejoin:round;stroke-dasharray:none;stroke-opacity:1;paint-order:stroke fill markers"
         inkscape:label="H"
         d="m 501.34501,57.521556 c -21.63292,0.24063 -7.25162,25.254117 -4.65192,62.605484 4.49011,64.51173 -18.17185,104.4937 2.67529,106.74284 43.98607,4.74553 -11.69118,-79.75346 27.09861,-81.08549 34.32001,-1.17856 -11.69933,81.20871 23.09833,80.79403 22.4552,-0.26759 7.99918,-42.76291 7.2347,-86.17665 -0.89905,-51.055883 14.90035,-82.553479 -7.77782,-82.852309 -24.1953,-0.318819 -5.07256,15.556002 -10.14512,74.059559 0,0 -24.08735,10.01979 -27.06966,-11.498 -3.5567,-25.662001 15.055,-62.873294 -10.46241,-62.589464 z"
         transform="translate(268.81677,-42.333336)" />
      <path
         id="path2121"
         style="display:inline;fill:#000000;fill-opacity:1;stroke:#000000;stroke-width:0.918413;stroke-linecap:round;stroke-linejoin:round;stroke-dasharray:none;stroke-opacity:1;paint-order:stroke fill markers"
         inkscape:label="S"
         d="m 445.33752,58.157435 c -14.73586,0.230034 -25.71048,11.849522 -25.90384,31.89082 -0.1823,18.893025 7.3139,21.294635 24.21661,34.590665 21.56988,16.96733 20.85714,42.78787 0.35553,45.64244 -7.57808,1.05515 -18.17275,-1.28725 -27.97555,-12.82755 2.92982,16.91914 4.89617,40.77756 30.30151,40.66773 17.16302,-0.0742 28.98989,-9.67353 31.18156,-38.2913 2.08078,-27.16988 -15.85143,-41.17595 -32.85433,-52.51542 -17.00289,-11.339461 -13.11574,-28.575288 0.67851,-31.948791 15.22879,-3.724334 20.2799,15.48093 21.30465,20.340402 0.14639,0.69421 0.21032,1.095805 0.21032,1.095805 0,0 6.72364,-8.280993 6.05131,-18.862328 -0.9628,-15.152575 -13.78007,-19.99768 -27.56628,-19.782473 z"
         transform="matrix(1,0,0,1.185562,273.52299,-53.123854)" />
      <path
         id="path2122"
         style="display:inline;fill:#000000;fill-opacity:1;stroke:#000000;stroke-width:1;stroke-linecap:round;stroke-linejoin:round;stroke-dasharray:none;stroke-opacity:1;paint-order:stroke fill markers"
         inkscape:label="N1"
         d="m 394.92669,56.436351 c -24.23663,0.43226 -12.22892,12.970598 -12.41423,52.539949 -0.11732,25.05041 -1.09657,31.2508 -1.09657,31.2508 -47.41992,-45.576529 -5.56952,-82.932266 -39.03121,-83.157196 -22.36518,-0.15034 -2.011,20.884718 -3.16622,76.829416 -1.38494,67.06994 -28.00517,91.12046 5.13147,91.16188 27.14551,0.0339 4.81674,-34.48766 9.3953,-75.69047 3.8804,-34.92011 28.77192,1.61489 28.25202,28.73468 -0.48581,25.34149 -12.77117,47.74417 10.9554,47.54232 7.00205,-0.0596 10.58243,-1.50722 12.04888,-4.7563 0.18331,-0.40614 0.33339,-0.84056 0.4532,-1.3038 2.75564,-10.65436 -10.60728,-36.62457 -8.99945,-87.72798 1.71576,-54.534078 19.29478,-75.794668 -1.52859,-75.423299 z"
         transform="translate(277.28344,-42.333336)" />
      <path
         id="path2123"
         style="display:inline;fill:#000000;fill-opacity:1;stroke:#000000;stroke-width:1;stroke-linecap:round;stroke-linejoin:round;stroke-dasharray:none;stroke-opacity:1;paint-order:stroke fill markers"
         inkscape:label="OO"
         d="m 560.30017,11.628748 c -21.06949,0.539619 -31.93656,44.545084 -31.93656,44.545084 0,0 -14.7833,-55.77259833 -44.08103,-41.829488 -15.0582,7.166372 -27.95377,35.492094 -28.22256,87.461846 0,0 -1.88198,84.60966 40.04872,82.07458 27.13306,-1.64046 31.98616,-38.02662 31.98616,-38.02662 0,0 8.33234,38.02644 38.43641,37.07577 30.1041,-0.95067 36.8238,-43.73117 36.01744,-84.609823 -0.80636,-40.878663 -13.97696,-80.173332 -37.89898,-86.194222 -1.49511,-0.376299 -2.94497,-0.533102 -4.3496,-0.497127 z m 0.58652,45.179154 c 0,0 27.14777,-1.267778 26.87898,39.927795 -0.29159,44.690183 -26.34102,40.879163 -26.34102,40.879163 0,0 -26.91158,1.90104 -26.61027,-42.146269 0.26878,-39.294245 26.07231,-38.660689 26.07231,-38.660689 z m -66.28691,0.243396 c 5.25232,-0.13067 26.27613,1.496214 26.5064,35.882048 0.30346,45.314464 -26.87847,44.047444 -26.87847,44.047444 0,0 -24.58319,4.04966 -25.80359,-38.3434 -0.18838,-6.543393 0.70918,-39.152041 24.99692,-41.512711 0,0 0.42843,-0.05468 1.17874,-0.07338 z" />
      <path
         id="path2124"
         style="display:inline;fill:#000000;fill-opacity:1;stroke:#000000;stroke-width:1;stroke-linecap:round;stroke-linejoin:round;stroke-dasharray:none;stroke-opacity:1;paint-order:stroke fill markers"
         inkscape:label="M"
         d="M 148.16343,54.272659 C 131.82581,54.12208 126.86769,143.26955 120.5522,111.94562 114.23668,80.621679 110.8037,53.65898 103.14551,54.77392 79.549831,58.209162 90.17696,65.203899 93.021579,102.52914 c 2.456555,32.23331 -3.31821,62.45403 -6.718381,84.88884 -3.40017,22.43481 -4.425747,37.08371 7.529184,38.17342 24.575808,2.24011 4.4982,-45.31605 14.042558,-105.54291 -2.71715,-35.557657 4.20482,44.9303 14.01981,45.24582 12.27477,0.39459 23.45073,-85.216012 19.58485,-46.2902 0.63064,67.99669 -12.24445,105.16258 7.27863,106.29635 24.13417,1.40155 8.75281,-59.12767 7.91631,-102.51105 -0.98374,-51.020178 17.23697,-63.465827 -8.51111,-68.516751 z"
         transform="translate(286.2793,-42.333336)"
         sodipodi:nodetypes="cssssscscssc" />
    </g>
  </g>
</svg>
