<?xml version="1.0" encoding="UTF-8" standalone="no"?>
<!-- Created with Inkscape (http://www.inkscape.org/) -->

<svg
   width="500mm"
   height="500mm"
   viewBox="0 0 500 500"
   version="1.1"
   id="svg1"
   xml:space="preserve"
   sodipodi:docname="moonshine.svg"
   inkscape:version="1.3.2 (091e20e, 2023-11-25, custom)"
   inkscape:export-filename="logo moonshine\czarny.svg"
   inkscape:export-xdpi="101.6"
   inkscape:export-ydpi="101.6"
   xmlns:inkscape="http://www.inkscape.org/namespaces/inkscape"
   xmlns:sodipodi="http://sodipodi.sourceforge.net/DTD/sodipodi-0.dtd"
   xmlns="http://www.w3.org/2000/svg"
   xmlns:svg="http://www.w3.org/2000/svg"><sodipodi:namedview
     id="namedview1"
     pagecolor="#ffffff"
     bordercolor="#000000"
     borderopacity="0.25"
     inkscape:showpageshadow="2"
     inkscape:pageopacity="0.0"
     inkscape:pagecheckerboard="0"
     inkscape:deskcolor="#d1d1d1"
     inkscape:document-units="mm"
     inkscape:zoom="0.43852551"
     inkscape:cx="950.9139"
     inkscape:cy="945.21298"
     inkscape:window-width="1920"
     inkscape:window-height="991"
     inkscape:window-x="-9"
     inkscape:window-y="-9"
     inkscape:window-maximized="1"
     inkscape:current-layer="g33" /><defs
     id="defs1"><inkscape:path-effect
       effect="offset"
       id="path-effect1"
       is_visible="true"
       lpeversion="1.2"
       linejoin_type="miter"
       unit="mm"
       offset="0"
       miter_limit="4"
       attempt_force_join="false"
       update_on_knot_move="true" /><linearGradient
       id="swatch4"
       inkscape:swatch="solid"><stop
         style="stop-color:#000000;stop-opacity:1;"
         offset="0"
         id="stop4" /></linearGradient><inkscape:path-effect
       effect="fill_between_many"
       method="originald"
       linkedpaths="#path13,0,1"
       id="path-effect2"
       is_visible="true"
       lpeversion="0"
       join="true"
       close="true"
       autoreverse="true" /><inkscape:path-effect
       effect="fill_between_many"
       method="originald"
       linkedpaths="#path15,0,1"
       id="path-effect22"
       is_visible="true"
       lpeversion="0"
       join="true"
       close="true"
       autoreverse="true" /><inkscape:path-effect
       effect="fill_between_many"
       method="originald"
       linkedpaths="#path19,0,1"
       id="path-effect24"
       is_visible="true"
       lpeversion="0"
       join="true"
       close="true"
       autoreverse="true" /><inkscape:path-effect
       effect="fill_between_many"
       method="originald"
       linkedpaths="#path17,0,1"
       id="path-effect25"
       is_visible="true"
       lpeversion="0"
       join="true"
       close="true"
       autoreverse="true" /><inkscape:path-effect
       effect="fill_between_many"
       method="originald"
       linkedpaths="#path21,0,1"
       id="path-effect26"
       is_visible="true"
       lpeversion="0"
       join="true"
       close="true"
       autoreverse="true" /><inkscape:path-effect
       effect="fill_between_many"
       method="originald"
       linkedpaths="#path23,0,1"
       id="path-effect32"
       is_visible="true"
       lpeversion="0"
       join="true"
       close="true"
       autoreverse="true" /></defs><g
     inkscape:label="Warstwa 1"
     inkscape:groupmode="layer"
     id="layer1"
     style="display:inline"><g
       id="g33"
       inkscape:label="final"
       style="display:inline"><path
         id="path6"
         style="display:inline"
         d="m 164.53518,76.887297 c -9.79708,2.628821 -36.24456,10.681307 -35.69188,21.182169 0.67634,12.850494 -10.82155,60.532744 -17.58497,60.532744 -6.76342,0 -13.188864,-30.77332 -13.188864,-30.77332 l -23.67194,37.19876 c 0,0 7.031392,9.12293 2.029334,40.58047 -6.299202,39.61517 -28.348146,50.12288 -38.072095,55.90253 0,0 20.168077,-8.73078 38.385254,-11.79566 19.064197,-3.20739 22.693004,-12.82169 19.30063,-36.66701 -2.85823,-20.09078 -0.337963,-45.31507 -0.337963,-45.31507 0,0 7.439444,19.95227 18.260904,19.95227 10.82147,0 16.57056,-21.30515 16.57056,-21.30515 0,0 3.71978,40.24259 4.39612,51.06406 0.67633,10.82147 -4.39643,17.92283 -4.7346,22.31905 -0.33817,4.39623 12.51261,13.86521 27.39213,1.35289 8.66698,-7.28814 3.49569,-7.54957 -1.77715,-22.61929 -5.90718,-14.11746 -9.67907,-34.23423 -9.01393,-60.3989 0.0901,-14.05347 1.17387,-26.83189 3.11919,-38.30257 0.0316,-0.21798 0.0645,-0.43052 0.0966,-0.64647 0.009,-0.0544 0.0169,-0.11152 0.0264,-0.16588 1.80338,-12.01903 4.55658,-20.85458 7.38767,-27.304795 2.09875,-5.435309 4.46064,-10.396354 7.10861,-14.790828 z"
         sodipodi:nodetypes="cssccscsscscsssccccccc" /><path
         id="path4"
         style="display:inline;fill:#000000;fill-opacity:0;stroke:#000000;stroke-width:2.589;stroke-linejoin:round;stroke-dasharray:none;stroke-opacity:1"
         d="m 164.53518,76.887297 c -9.79708,2.628821 -36.24456,10.681307 -35.69188,21.182169 0.67634,12.850494 -10.82155,60.532744 -17.58497,60.532744 -6.76342,0 -13.188864,-30.77332 -13.188864,-30.77332 l -23.67194,37.19876 c 0,0 7.031392,9.12293 2.029334,40.58047 -6.299202,39.61517 -28.348146,50.12288 -38.072095,55.90253 0,0 20.168077,-8.73078 38.385254,-11.79566 19.064197,-3.20739 22.693004,-12.82169 19.30063,-36.66701 -2.85823,-20.09078 -0.337963,-45.31507 -0.337963,-45.31507 0,0 7.439444,19.95227 18.260904,19.95227 10.82147,0 16.57056,-21.30515 16.57056,-21.30515 0,0 3.71978,40.24259 4.39612,51.06406 0.67633,10.82147 -4.39643,17.92283 -4.7346,22.31905 -0.33817,4.39623 12.51261,13.86521 27.39213,1.35289 8.66698,-7.28814 3.49569,-8.07874 -1.77715,-23.14846 -5.90718,-14.11746 -9.67907,-33.70506 -9.01393,-59.86973 0.0901,-14.05347 1.17387,-26.83189 3.11919,-38.30257 0.0316,-0.21798 0.0645,-0.43052 0.0966,-0.64647 0.009,-0.0544 0.0169,-0.11152 0.0264,-0.16588 1.80338,-12.01903 4.55658,-20.85458 7.38767,-27.304795 2.09875,-5.435309 4.46064,-10.396354 7.10861,-14.790828 z"
         sodipodi:nodetypes="cssccscsscscsssccccccc" /><path
         id="path12"
         style="fill:#000000"
         d="m 290.08927,62.030839 c -26.50832,0.575864 -40.18049,47.536631 -40.18049,47.536631 0,0 -18.5996,-59.518121 -55.46018,-44.638617 -18.94531,7.647651 -35.16973,37.875437 -35.50791,93.335387 0,0 -2.36751,90.29174 50.3871,87.58639 34.13715,-1.75063 40.24251,-40.58047 40.24251,-40.58047 0,0 10.48319,40.58005 48.35828,39.56554 37.87512,-1.01451 46.32957,-46.66766 45.31507,-90.29164 -1.01452,-43.62401 -17.58466,-85.557263 -47.68185,-91.982504 -1.88106,-0.401578 -3.70531,-0.569108 -5.47253,-0.530717 z m 0.73794,48.213081 c 0,0 34.15524,-1.35293 33.81706,42.60928 -0.36686,47.69147 -33.14062,43.62421 -33.14062,43.62421 0,0 -33.85817,2.02886 -33.47909,-44.97658 0.33817,-41.93319 32.80265,-41.25691 32.80265,-41.25691 z m -83.39801,0.25993 c 6.60813,-0.13944 33.05916,1.59659 33.34887,38.29172 0.38179,48.3577 -33.81706,47.0054 -33.81706,47.0054 0,0 -30.92924,4.32166 -32.46468,-40.91843 -0.237,-6.98283 0.8924,-41.78145 31.44976,-44.30066 0,0 0.53909,-0.0581 1.48311,-0.078 z"
         inkscape:original-d="m 290.08927,62.030839 c -26.50832,0.575864 -40.18049,47.536631 -40.18049,47.536631 0,0 -18.5996,-59.518121 -55.46018,-44.638617 -18.94531,7.647651 -35.16973,37.875437 -35.50791,93.335387 0,0 -2.36751,90.29174 50.3871,87.58639 34.13715,-1.75063 40.24251,-40.58047 40.24251,-40.58047 0,0 10.48319,40.58005 48.35828,39.56554 37.87512,-1.01451 46.32957,-46.66766 45.31507,-90.29164 -1.01452,-43.62401 -17.58466,-85.557263 -47.68185,-91.982504 -1.88106,-0.401578 -3.70531,-0.569108 -5.47253,-0.530717 z m 0.73794,48.213081 c 0,0 34.15524,-1.35293 33.81706,42.60928 -0.36686,47.69147 -33.14062,43.62421 -33.14062,43.62421 0,0 -33.85817,2.02886 -33.47909,-44.97658 0.33817,-41.93319 32.80265,-41.25691 32.80265,-41.25691 z m -83.39801,0.25993 c 6.60813,-0.13944 33.05916,1.59659 33.34887,38.29172 0.38179,48.3577 -33.81706,47.0054 -33.81706,47.0054 0,0 -30.92924,4.32166 -32.46468,-40.91843 -0.237,-6.98283 0.8924,-41.78145 31.44976,-44.30066 0,0 0.53909,-0.0581 1.48311,-0.078 z"
         inkscape:path-effect="#path-effect1" /><path
         style="display:inline;fill:#000000;fill-opacity:0;stroke:#000000;stroke-width:2.589;stroke-dasharray:none;stroke-opacity:1"
         d="m 205.94626,110.58198 c 0,0 34.50053,-3.72403 34.83163,38.21335 0.38179,48.3578 -33.81712,47.00579 -33.81712,47.00579 0,0 -30.92897,4.32148 -32.46443,-40.91871 -0.237,-6.98283 0.8925,-41.78122 31.44992,-44.30043 z"
         id="path7"
         sodipodi:nodetypes="cscsc"
         transform="translate(-0.33817078,0.33817165)" /><path
         style="display:inline;fill:#000000;fill-opacity:0;stroke:#000000;stroke-width:2.589;stroke-dasharray:none;stroke-opacity:1"
         d="m 290.82723,110.24381 c 0,0 34.1553,-1.35269 33.81712,42.60957 -0.36686,47.69152 -33.14078,43.62409 -33.14078,43.62409 0,0 -33.85802,2.02872 -33.47894,-44.97677 0.33817,-41.93323 32.8026,-41.25689 32.8026,-41.25689 z"
         id="path10"
         sodipodi:nodetypes="cscsc" /><path
         d="m 334.09124,76.668188 c 13.85819,20.416697 20.64539,49.557522 21.2974,77.593712 0.5706,24.53586 -1.90032,52.00841 -11.88919,72.37233 -1.6714,12.45098 3.19835,18.14023 19.69647,19.55436 23.67197,2.02903 3.73225,-19.42602 7.10137,-70.33938 2.982,-45.06332 29.24054,24.99063 28.42961,45.40597 -0.65027,16.37058 -1.37431,28.08584 17.54147,28.07725 12.78335,-0.006 32.47033,5.73728 36.58409,7.63896 -23.30075,-10.71192 -29.39203,-21.3415 -35.86827,-40.41323 -10.7202,-31.56969 5.39158,-63.36648 5.39158,-63.36648 0,0 -31.44966,-40.58089 -24.0099,-29.75942 7.43976,10.82147 1.0144,63.91444 1.0144,63.91444 0,0 -34.15534,-87.586178 -9.13071,-76.08837 5.5525,2.55114 -45.36848,-28.099782 -56.15832,-34.590142 z"
         id="path3"
         inkscape:original-d="M 0,0"
         inkscape:path-effect="#path-effect2" /><path
         id="path13"
         style="fill:#000000;fill-opacity:0;stroke:#000000;stroke-width:2.589;stroke-linejoin:round;stroke-dasharray:none;stroke-opacity:1"
         d="m 334.09124,76.668188 c 13.85819,20.416697 20.64539,49.557522 21.2974,77.593712 0.5706,24.53586 -1.90032,52.00841 -11.88919,72.37233 -1.6714,12.45098 3.19835,18.14023 19.69647,19.55436 23.67197,2.02903 3.73225,-19.42602 7.10137,-70.33938 2.982,-45.06332 29.24054,24.99063 28.42961,45.40597 -0.65027,16.37058 -1.37431,28.08584 17.54147,28.07725 12.78335,-0.006 32.47033,5.73728 36.58409,7.63896 -23.30075,-10.71192 -29.39203,-21.3415 -35.86827,-40.41323 -10.7202,-31.56969 5.39158,-63.36648 5.39158,-63.36648 0,0 -31.44966,-40.58089 -24.0099,-29.75942 7.43976,10.82147 1.0144,63.91444 1.0144,63.91444 0,0 -34.15534,-87.586178 -9.13071,-76.08837 5.5525,2.55114 -45.36848,-28.099782 -56.15832,-34.590142 z"
         sodipodi:nodetypes="cscsssscscscsc" /><path
         inkscape:original-d="M 0,0"
         inkscape:path-effect="#path-effect22"
         d="m 74.735837,336.48035 c 20.290271,-15.2177 22.949546,4.96909 33.817123,4.05805 21.56233,-1.80758 23.16196,-25.45517 5.41074,-32.46443 -24.560417,-9.69794 -28.270369,-17.11633 -28.086992,-31.00389 0.194522,-14.73162 11.234404,-23.27259 26.057962,-23.44168 13.86824,-0.15819 26.76151,3.40326 27.73004,14.54136 0.67634,7.77795 -6.08708,13.86502 -6.08708,13.86502 0,0 -6.54119,-17.36083 -21.64296,-11.49782 -9.47648,3.67909 -6.8252,14.03215 3.04354,17.58489 16.90856,6.08708 30.92076,21.13543 30.92076,40.24238 0,16.57039 -9.98512,69.61999 -26.52453,36.86066 -8.19277,-16.22727 -26.104671,-0.43219 -23.949251,5.94378 z"
         id="path22" /><path
         style="fill:#000000;fill-opacity:0;stroke:#000000;stroke-width:2.589;stroke-dasharray:none;stroke-opacity:1"
         d="m 70.339611,333.09864 c 20.290271,-15.2177 22.949546,4.96909 33.817119,4.05805 21.56233,-1.80758 23.16196,-25.45517 5.41074,-32.46443 -24.560413,-9.69794 -28.270365,-17.11633 -28.086988,-31.00389 0.194522,-14.73162 11.234404,-23.27259 26.057958,-23.44168 13.86824,-0.15819 26.76151,3.40326 27.73004,14.54136 0.67634,7.77795 -6.08708,13.86502 -6.08708,13.86502 0,0 -6.54119,-17.36083 -21.64296,-11.49782 -9.476475,3.67909 -6.8252,14.03215 3.04354,17.58489 16.90856,6.08708 30.92076,21.13543 30.92076,40.24238 0,16.57039 -9.98512,69.61999 -26.52453,36.86066 -8.19277,-16.22727 -26.104667,-0.43219 -23.949247,5.94378 z"
         id="path15"
         sodipodi:nodetypes="cssssscsssscc"
         transform="translate(4.3962257,3.381712)" /><path
         inkscape:original-d="M 0,0"
         inkscape:path-effect="#path-effect24"
         d="m 199.52101,327.34972 c 5.07256,-58.50362 -14.05018,-74.37831 10.14514,-74.05949 22.67819,0.29883 7.77793,31.78808 7.77793,82.85193 0,71.69948 17.65911,111.26816 -14.87953,107.20027 -13.40662,-1.67606 -36.7422,-19.99298 -25.76433,-18.65216 20.13665,2.45944 20.69177,-26.83186 22.04445,-40.86596 2.30356,-23.89939 1.69086,-36.86067 -15.55588,-36.86067 -8.72354,0 -14.54136,6.08709 -13.18868,25.36286 1.35268,19.27574 4.28034,69.27278 -22.3193,45.31492 -7.02897,-6.33088 -31.10671,-29.49929 -19.40732,-23.07892 12.82562,7.03841 31.27052,-23.55851 28.96376,-78.6947 -1.5651,-37.40904 -16.98093,-62.36498 4.65201,-62.60561 25.51744,-0.28383 6.90563,36.92768 10.46233,62.58971 2.98232,21.51781 27.06942,11.49782 27.06942,11.49782 z"
         id="path24" /><path
         style="fill:#000000;fill-opacity:0;stroke:#000000;stroke-width:2.589;stroke-dasharray:none;stroke-opacity:1"
         d="m 196.47747,326.33521 c 5.07256,-58.50362 -14.05018,-74.37831 10.14514,-74.05949 22.67819,0.29883 7.77793,31.78808 7.77793,82.85193 0,71.69948 17.65911,111.26816 -14.87953,107.20027 -13.40662,-1.67606 -36.7422,-19.99298 -25.76433,-18.65216 20.13665,2.45944 20.69177,-26.83186 22.04445,-40.86596 2.30356,-23.89939 1.69086,-36.86067 -15.55588,-36.86067 -8.72354,0 -14.54136,6.08709 -13.18868,25.36286 1.35268,19.27574 4.28034,69.27278 -22.3193,45.31492 -7.02897,-6.33088 -31.10671,-29.49929 -19.40732,-23.07892 12.82562,7.03841 31.27052,-23.55851 28.96376,-78.6947 -1.5651,-37.40904 -16.98093,-62.36498 4.65201,-62.60561 25.51744,-0.28383 6.90563,36.92768 10.46233,62.58971 2.98232,21.51781 27.06942,11.49782 27.06942,11.49782 z"
         id="path19"
         sodipodi:nodetypes="cssssssssssssc"
         transform="translate(3.0435408,1.0145136)" /><path
         inkscape:original-d="M 0,0"
         inkscape:path-effect="#path-effect26"
         d="m 309.42665,437.59352 c -36.5225,13.18868 -27.60683,-28.08871 -26.03919,-85.21912 2.32918,-84.88347 -13.52751,-101.42632 9.13062,-100.77502 18.25345,0.52469 12.77515,1.12233 12.6157,20.96994 -0.32288,40.18951 32.02291,68.98691 32.02291,68.98691 0,0 2.63434,-34.06482 4.29935,-48.25848 1.66502,-14.19365 1.6789,-17.42408 -1.20614,-27.11059 -5.04276,-16.93101 -55.89141,-18.49954 3.75986,-12.05354 33.75955,3.6481 11.38265,33.49628 7.77625,88.41219 -0.33639,5.1224 -8.48329,67.44919 19.12803,54.24586 0,0 6.01232,17.47152 -20.95574,15.27648 -26.96807,-2.19503 -7.0924,-28.72503 -17.75357,-47.53553 -9.80965,-17.30809 -28.98578,-43.52935 -28.98578,-43.52935 0,0 -4.5086,38.68009 -3.93445,58.04151 1.17202,39.5231 11.62072,49.03826 23.69945,46.20316 5.16629,-1.21263 -13.5573,12.34558 -13.5573,12.34558 z"
         id="path32" /><path
         style="fill:#000000;fill-opacity:0;stroke:#000000;stroke-width:2.589;stroke-dasharray:none;stroke-opacity:1"
         d="m 309.42665,437.59352 c -36.5225,13.18868 -27.60683,-28.08871 -26.03919,-85.21912 2.32918,-84.88347 -13.52751,-101.42632 9.13062,-100.77502 18.25345,0.52469 12.77515,1.12233 12.6157,20.96994 -0.32288,40.18951 32.02291,68.98691 32.02291,68.98691 0,0 2.63434,-34.06482 4.29935,-48.25848 1.66502,-14.19365 1.6789,-17.42408 -1.20614,-27.11059 -5.04276,-16.93101 -55.89141,-18.49954 3.75986,-12.05354 33.75955,3.6481 11.38265,33.49628 7.77625,88.41219 -0.33639,5.1224 -8.48329,67.44919 19.12803,54.24586 0,0 6.01232,17.47152 -20.95574,15.27648 -26.96807,-2.19503 -7.0924,-28.72503 -17.75357,-47.53553 -9.80965,-17.30809 -28.98578,-43.52935 -28.98578,-43.52935 0,0 -4.5086,38.68009 -3.93445,58.04151 1.17202,39.5231 11.62072,49.03826 23.69945,46.20316 5.16629,-1.21263 -13.5573,12.34558 -13.5573,12.34558 z"
         id="path21"
         sodipodi:nodetypes="cssscssssczscssc" /><path
         inkscape:original-d="M 0,0"
         inkscape:path-effect="#path-effect25"
         d="m 220.21247,436.42367 c 25.47277,1.95679 26.72351,-45.77539 26.21628,-86.01599 -1.01451,-80.48473 -28.98467,-100.49917 4.15611,-100.83734 33.14076,-0.33817 6.50244,18.98417 7.04385,100.49917 0.28015,42.17974 3.01293,87.47874 29.63659,87.22024 5.48944,-0.0533 -17.00256,9.89739 -34.72669,10.03711 -17.72412,0.13967 -32.32614,-10.90319 -32.32614,-10.90319 z"
         id="path26" /><path
         style="fill:#000000;fill-opacity:0;stroke:#000000;stroke-width:2.589;stroke-dasharray:none;stroke-opacity:1"
         d="m 220.21247,436.42367 c 25.47277,1.95679 26.72351,-45.77539 26.21628,-86.01599 -1.01451,-80.48473 -28.98467,-100.49917 4.15611,-100.83734 33.14076,-0.33817 6.50244,18.98417 7.04385,100.49917 0.28015,42.17974 3.01293,87.47874 29.63659,87.22024 5.48944,-0.0533 -17.00256,9.89739 -34.72669,10.03711 -17.72412,0.13967 -32.32614,-10.90319 -32.32614,-10.90319 z"
         id="path17"
         sodipodi:nodetypes="csssssc" /><path
         inkscape:original-d="M 0,0"
         inkscape:path-effect="#path-effect32"
         d="m 392.93073,330.06913 c 24.08274,11.23176 32.1178,-6.35069 32.1178,-6.35069 0,0 -2.82401,38.13755 -18.09417,30.34665 -15.27016,-7.79091 -39.76626,25.66926 -39.76626,25.66926 0,0 16.39355,-31.59034 12.96556,-67.11685 -3.42801,-35.52653 -14.33525,-57.9643 -0.31163,-56.71776 14.02361,1.24655 25.33541,10.13686 42.88233,6.41479 10.284,-2.18146 11.21892,15.74068 -0.93489,15.42905 -6.54963,-0.16793 -27.10371,-11.19633 -30.72854,0.28232 -1.86982,5.92109 -0.38553,19.35357 3.66573,20.91175 6.6391,2.5535 28.69476,-16.04626 27.88088,3.57983 -0.44659,10.7691 -14.55807,2.07756 -22.50917,4.17893 -11.47589,3.03293 -7.16764,23.37272 -7.16764,23.37272 z"
         id="path33" /><path
         style="display:inline;fill:#000000;fill-opacity:0;stroke:#000000;stroke-width:2.589;stroke-linejoin:round;stroke-dasharray:none;stroke-opacity:1"
         d="m 390.58773,334.7895 c 26.13333,12.18812 34.85256,-6.89143 34.85256,-6.89143 0,0 -3.06447,41.38488 -19.63485,32.9306 -16.57038,-8.45429 -43.15228,27.85494 -43.15228,27.85494 0,0 17.78943,-34.28019 14.06955,-72.8317 -3.71989,-38.55154 -15.55586,-62.89984 -0.33816,-61.54716 15.21769,1.35269 27.49267,10.99999 46.53367,6.96099 11.15966,-2.3672 12.17419,17.08097 -1.0145,16.74281 -7.10731,-0.18223 -29.41153,-12.14968 -33.34501,0.30635 -2.02903,6.42526 -0.41835,21.00149 3.97786,22.69234 7.20441,2.77093 31.13806,-17.41256 30.25488,3.88465 -0.48461,11.68607 -15.79766,2.25446 -24.42578,4.53476 -12.45303,3.29117 -7.77794,25.36285 -7.77794,25.36285 z"
         id="path23"
         sodipodi:nodetypes="ccscssssssssc"
         transform="matrix(0.92153339,0,0,0.92153339,32.9911,21.549423)" /><path
         id="circle87"
         style="display:inline;fill:#000000;fill-opacity:1;stroke:#000000;stroke-width:8.589;stroke-dasharray:none;stroke-opacity:1"
         d="M 250.0297,53.082548 C 148.49419,53.308601 63.659356,130.45671 53.819454,231.51455 c 1.882504,-1.72636 4.425427,-5.25243 5.566068,-11.08604 C 72.000572,124.6223 153.63117,57.705473 250.26431,57.630074 351.02367,57.662341 434.7434,135.32129 442.33321,235.79439 l 4.83174,2.36833 C 440.56967,134.12337 354.27789,53.108438 250.0297,53.082548 Z M 58.837236,267.79554 53.792065,269.4218 c 9.653769,101.22228 94.556305,178.58954 196.237635,178.82112 101.40552,-0.006 186.34238,-76.77946 196.56165,-177.66874 l -4.57389,-1.61024 C 432.41462,367.67785 349.4442,442.97631 250.26431,442.9864 150.80196,442.75112 67.864028,366.8477 58.837236,267.79554 Z"
         sodipodi:nodetypes="cccccccccccccc" /></g></g></svg>
